<svg viewBox="0 0 21.7886 20" xmlns="http://www.w3.org/2000/svg" xmlns:xlink="http://www.w3.org/1999/xlink" width="21.788574" height="20.000000" fill="none">
	<rect id="profile 1" width="21.788631" height="20.000000" x="0.000000" y="0.000000" fill="rgb(255,255,255)" fill-opacity="0" />
	<path id="Vector" d="M10.8944 9.16634C11.7921 9.16634 12.6698 8.922 13.4163 8.46409C14.1627 8.00629 14.7446 7.35555 15.0881 6.59419C15.4317 5.83283 15.5216 4.99506 15.3464 4.1868C15.1713 3.37855 14.739 2.63611 14.1041 2.0534C13.4693 1.47068 12.6605 1.07384 11.78 0.913073C10.8994 0.752298 9.98669 0.834814 9.15727 1.15017C8.3278 1.46554 7.61886 1.9996 7.12008 2.6848C6.62129 3.37001 6.35507 4.17559 6.35507 4.99967C6.35651 6.10434 6.83522 7.16337 7.68619 7.94449C8.53716 8.72559 9.69091 9.165 10.8944 9.16634ZM10.8944 2.49967C11.433 2.49967 11.9596 2.6463 12.4075 2.921C12.8554 3.19571 13.2045 3.58615 13.4106 4.04296C13.6168 4.49978 13.6707 5.00245 13.5656 5.4874C13.4605 5.97235 13.2011 6.41781 12.8202 6.76744C12.4394 7.11707 11.954 7.35517 11.4257 7.45164C10.8974 7.5481 10.3497 7.49859 9.85205 7.30937C9.35445 7.12015 8.92907 6.79972 8.62979 6.3886C8.33053 5.97748 8.17079 5.49413 8.17079 4.99967C8.17079 4.33663 8.45774 3.70075 8.96851 3.23191C9.47929 2.76306 10.1721 2.49967 10.8944 2.49967ZM2.72363 18.333L2.72363 14.9997C2.72508 13.895 3.20378 12.836 4.05475 12.0548C4.90573 11.2738 6.05948 10.8343 7.26293 10.833L14.5258 10.833C15.7293 10.8343 16.883 11.2738 17.734 12.0548C18.5849 12.836 19.0636 13.895 19.0651 14.9997L19.0651 18.333C19.0651 18.554 18.9694 18.766 18.7992 18.9223C18.629 19.0785 18.398 19.1663 18.1572 19.1663C17.9165 19.1663 17.6855 19.0785 17.5153 18.9223C17.3451 18.766 17.2494 18.554 17.2494 18.333L17.2494 14.9997C17.2494 14.3367 16.9624 13.7008 16.4516 13.2319C15.9409 12.7631 15.2481 12.4997 14.5258 12.4997L7.26293 12.4997C6.54059 12.4997 5.84784 12.7631 5.33707 13.2319C4.8263 13.7008 4.53935 14.3367 4.53935 14.9997L4.53935 18.333C4.53935 18.554 4.4437 18.766 4.27345 18.9223C4.10319 19.0785 3.87227 19.1663 3.63149 19.1663C3.39071 19.1663 3.1598 19.0785 2.98954 18.9223C2.81928 18.766 2.72363 18.554 2.72363 18.333Z" fill="rgb(255,255,255)" fill-rule="nonzero" />
</svg>
